<svg version="1.1" xmlns="http://www.w3.org/2000/svg" xmlns:xlink="http://www.w3.org/1999/xlink" width="76.70491" height="110.04743" viewBox="0,0,76.70491,110.04743"><defs><linearGradient x1="227.49097" y1="188.1925" x2="227.49097" y2="223.67123" gradientUnits="userSpaceOnUse" id="color-1"><stop offset="0" stop-color="#9f7a29"/><stop offset="1" stop-color="#d29839"/></linearGradient><linearGradient x1="232.615" y1="195.26374" x2="232.615" y2="218.61796" gradientUnits="userSpaceOnUse" id="color-2"><stop offset="0" stop-color="#f3b271"/><stop offset="1" stop-color="#ffcb99"/></linearGradient><linearGradient x1="266.85091" y1="197.89954" x2="266.85091" y2="216.62189" gradientUnits="userSpaceOnUse" id="color-3"><stop offset="0" stop-color="#ac7f2e"/><stop offset="1" stop-color="#d29839"/></linearGradient><linearGradient x1="214.13556" y1="198.09444" x2="214.13556" y2="216.77459" gradientUnits="userSpaceOnUse" id="color-4"><stop offset="0" stop-color="#ac7f2e"/><stop offset="1" stop-color="#d29839"/></linearGradient><linearGradient x1="206.88003" y1="157.03766" x2="223.22964" y2="157.03766" gradientUnits="userSpaceOnUse" id="color-5"><stop offset="0" stop-color="#cbbd7c"/><stop offset="1" stop-color="#b4812d"/></linearGradient><linearGradient x1="257.31705" y1="157.1919" x2="273.66667" y2="157.1919" gradientUnits="userSpaceOnUse" id="color-6"><stop offset="0" stop-color="#b4812d"/><stop offset="1" stop-color="#cbbd7c"/></linearGradient><linearGradient x1="227.08531" y1="175.97798" x2="227.08531" y2="189.6549" gradientUnits="userSpaceOnUse" id="color-7"><stop offset="0" stop-color="#ffcb6b"/><stop offset="1" stop-color="#ffcb99"/></linearGradient><linearGradient x1="218.75664" y1="180.79087" x2="226.46872" y2="180.79087" gradientUnits="userSpaceOnUse" id="color-8"><stop offset="0" stop-color="#fe9e6c"/><stop offset="1" stop-color="#ffcb99"/></linearGradient><linearGradient x1="254.38646" y1="180.01967" x2="262.09854" y2="180.01967" gradientUnits="userSpaceOnUse" id="color-9"><stop offset="0" stop-color="#fe9e6c"/><stop offset="1" stop-color="#ffcb99"/></linearGradient><linearGradient x1="250.12091" y1="214.90742" x2="250.12091" y2="235.96171" gradientUnits="userSpaceOnUse" id="color-10"><stop offset="0" stop-color="#a3e9a8"/><stop offset="1" stop-color="#ffde00"/></linearGradient><linearGradient x1="253.44835" y1="233.09252" x2="253.44835" y2="239.2466" gradientUnits="userSpaceOnUse" id="color-11"><stop offset="0" stop-color="#d49b9b"/><stop offset="1" stop-color="#1951e3"/></linearGradient><linearGradient x1="252.94695" y1="232.97888" x2="252.94695" y2="235.87777" gradientUnits="userSpaceOnUse" id="color-12"><stop offset="0" stop-color="#a3e9a8"/><stop offset="1" stop-color="#ffde00"/></linearGradient><linearGradient x1="222.21162" y1="194.40918" x2="222.21162" y2="222.92972" gradientUnits="userSpaceOnUse" id="color-13"><stop offset="0" stop-color="#a3e9a8"/><stop offset="1" stop-color="#ffde00"/></linearGradient><linearGradient x1="233.91243" y1="214.96916" x2="233.91243" y2="236.02346" gradientUnits="userSpaceOnUse" id="color-14"><stop offset="0" stop-color="#a3e9a8"/><stop offset="1" stop-color="#ffde00"/></linearGradient><linearGradient x1="230.95544" y1="233.30862" x2="230.95544" y2="239.4627" gradientUnits="userSpaceOnUse" id="color-15"><stop offset="0" stop-color="#d49b9b"/><stop offset="1" stop-color="#1951e3"/></linearGradient><linearGradient x1="231.48771" y1="233.0715" x2="231.48771" y2="235.97039" gradientUnits="userSpaceOnUse" id="color-16"><stop offset="0" stop-color="#a3e9a8"/><stop offset="1" stop-color="#ffde00"/></linearGradient><linearGradient x1="241.71256" y1="184.48384" x2="241.71256" y2="219.98945" gradientUnits="userSpaceOnUse" id="color-17"><stop offset="0" stop-color="#a3e9a8"/><stop offset="1" stop-color="#ffde00"/></linearGradient><linearGradient x1="234.12098" y1="191.56045" x2="234.12098" y2="214.93238" gradientUnits="userSpaceOnUse" id="color-18"><stop offset="0" stop-color="#f3b271"/><stop offset="1" stop-color="#ffcb99"/></linearGradient><linearGradient x1="265.86338" y1="209.83291" x2="265.86338" y2="215.97498" gradientUnits="userSpaceOnUse" id="color-19"><stop offset="0" stop-color="#d49b9b"/><stop offset="1" stop-color="#1951e3"/></linearGradient><linearGradient x1="260.34805" y1="194.19823" x2="260.34805" y2="212.93478" gradientUnits="userSpaceOnUse" id="color-20"><stop offset="0" stop-color="#a3e9a8"/><stop offset="1" stop-color="#ffde00"/></linearGradient><linearGradient x1="218.32094" y1="210.14163" x2="218.32094" y2="216.2837" gradientUnits="userSpaceOnUse" id="color-21"><stop offset="0" stop-color="#d49b9b"/><stop offset="1" stop-color="#1951e3"/></linearGradient><linearGradient x1="223.59441" y1="194.3933" x2="223.59441" y2="213.08759" gradientUnits="userSpaceOnUse" id="color-22"><stop offset="0" stop-color="#a3e9a8"/><stop offset="1" stop-color="#ffde00"/></linearGradient><linearGradient x1="229.74516" y1="188.03608" x2="229.74516" y2="197.91503" gradientUnits="userSpaceOnUse" id="color-23"><stop offset="0" stop-color="#a3e9a8"/><stop offset="1" stop-color="#ffde00"/></linearGradient><linearGradient x1="237.52483" y1="187.88172" x2="237.52483" y2="197.76067" gradientUnits="userSpaceOnUse" id="color-24"><stop offset="0" stop-color="#a3e9a8"/><stop offset="1" stop-color="#ffde00"/></linearGradient><linearGradient x1="246.10717" y1="187.88172" x2="246.10717" y2="197.76067" gradientUnits="userSpaceOnUse" id="color-25"><stop offset="0" stop-color="#a3e9a8"/><stop offset="1" stop-color="#ffde00"/></linearGradient><linearGradient x1="254.59689" y1="187.72736" x2="254.59689" y2="197.60631" gradientUnits="userSpaceOnUse" id="color-26"><stop offset="0" stop-color="#a3e9a8"/><stop offset="1" stop-color="#ffde00"/></linearGradient><linearGradient x1="241.55359" y1="186.64685" x2="241.55359" y2="194.21042" gradientUnits="userSpaceOnUse" id="color-27"><stop offset="0" stop-color="#a3e9a8"/><stop offset="1" stop-color="#ffde00"/></linearGradient><linearGradient x1="216.5475" y1="153.3054" x2="216.5475" y2="168.74125" gradientUnits="userSpaceOnUse" id="color-28"><stop offset="0" stop-color="#d49b9b"/><stop offset="1" stop-color="#1951e3"/></linearGradient><linearGradient x1="267.02276" y1="153.45975" x2="267.02276" y2="168.89561" gradientUnits="userSpaceOnUse" id="color-29"><stop offset="0" stop-color="#d49b9b"/><stop offset="1" stop-color="#1951e3"/></linearGradient><linearGradient x1="242.06103" y1="137.7826" x2="242.06103" y2="187.17735" gradientUnits="userSpaceOnUse" id="color-30"><stop offset="0" stop-color="#d49b9b"/><stop offset="1" stop-color="#1951e3"/></linearGradient><linearGradient x1="241.56335" y1="147.09878" x2="241.56335" y2="190.73844" gradientUnits="userSpaceOnUse" id="color-31"><stop offset="0" stop-color="#a3e9a8"/><stop offset="1" stop-color="#ffde00"/></linearGradient><linearGradient x1="241.92669" y1="172.26004" x2="241.92669" y2="185.94734" gradientUnits="userSpaceOnUse" id="color-32"><stop offset="0" stop-color="#d49b9b"/><stop offset="1" stop-color="#1951e3"/></linearGradient><linearGradient x1="220.25211" y1="177.07662" x2="227.97004" y2="177.07662" gradientUnits="userSpaceOnUse" id="color-33"><stop offset="0" stop-color="#fe9e6c"/><stop offset="1" stop-color="#ffcb99"/></linearGradient><linearGradient x1="255.90894" y1="176.30482" x2="263.62687" y2="176.30482" gradientUnits="userSpaceOnUse" id="color-34"><stop offset="0" stop-color="#fe9e6c"/><stop offset="1" stop-color="#ffcb99"/></linearGradient><linearGradient x1="240.56744" y1="133.08227" x2="240.56744" y2="141.26543" gradientUnits="userSpaceOnUse" id="color-35"><stop offset="0" stop-color="#d49b9b"/><stop offset="1" stop-color="#1951e3"/></linearGradient></defs><g transform="translate(-198.49885,-133.08227)"><g data-paper-data="{&quot;isPaintingLayer&quot;:true}" fill-rule="nonzero" stroke-linejoin="miter" stroke-miterlimit="10" stroke-dasharray="" stroke-dashoffset="0" style="mix-blend-mode: normal"><g stroke="none" stroke-width="1" stroke-linecap="round"><path d="M252.59726,221.44898c0.58612,1.24442 0.91373,2.61532 1.20308,3.96401c0.23938,1.12103 0.46828,2.18283 0.43188,3.28535c-0.11352,3.4618 0.41954,7.14386 -0.77121,10.39589c-0.41028,0.99825 -2.19393,0.31157 -3.23907,0.24679c-0.47753,-0.02961 -1.23578,0.15362 -1.32648,-0.55527c-0.50468,-2.80165 -0.03455,-5.70447 -0.21594,-8.54499c-0.07835,-1.22344 -0.13697,-2.43702 -0.52442,-3.54756c-0.43743,-1.25923 -1.03959,-2.47404 -1.9126,-3.45501c-0.89645,-1.00812 -3.91712,-1.55969 -3.17738,-2.34447c1.3271,-1.52884 4.74015,-2.44195 7.31105,-2.28278c1.19753,0.07404 1.64915,1.7818 2.22108,2.83805z" fill="#b4852d"/><path d="M255.03427,238.32301c0.62992,0.43434 1.46283,0.91558 1.54242,1.66581c0.09254,0.89769 -0.33069,2.01686 -1.11054,2.46787c-1.09635,0.63424 -2.50365,0.40411 -3.7635,0.40103c-1.32278,0.00308 -2.82139,0.27332 -3.94859,-0.40103c-0.63918,-0.38252 -0.51764,-1.47578 -0.37018,-2.20566c0.18324,-0.90447 0.49234,-1.82499 1.28823,-2.45306c0.79589,-0.62869 2.0255,-1.13152 3.10766,-1.01738c1.21049,0.12833 2.2655,0.86684 3.2545,1.54242z" fill="#fdcb96"/><path d="M253.83119,236.90399c0.4436,0.12031 0.78725,0.58735 0.98715,1.01799c0.15548,0.33748 0.36278,0.82612 0.09254,1.04884c-0.52195,0.42817 -1.25059,0.52319 -1.9126,0.55527c-1.47393,0.06972 -2.89666,-0.03578 -4.31877,-0.24679c-0.36833,-0.05676 -0.85573,-0.13388 -0.86375,-0.43188c-0.04257,-0.64288 0.24432,-1.38509 0.74776,-1.70715c0.67866,-0.43558 1.58499,-0.40843 2.39877,-0.45224c0.93656,-0.04997 1.94653,-0.10118 2.86889,0.21594z" fill="#cc9832"/></g><path d="M209.34789,200.13278c2.21244,0.92113 4.04483,2.68812 5.70694,4.41131c0.90941,1.01614 1.51774,2.32905 1.8509,3.6401c0.55959,2.20195 0.45902,4.52854 0.70951,6.78663c0.22889,2.06005 -0.02406,4.16638 0.67866,6.07712c0.40535,1.09943 1.28144,2.08535 2.31362,2.40617c1.73614,0.58735 3.66355,0.30231 5.39846,0.12339c2.08226,-0.21285 4.17193,-0.47815 6.16967,-1.20308c1.43753,-0.52134 2.49563,-2.17357 3.94859,-2.34447c2.23897,-0.26283 7.65039,0.05368 6.69409,1.01799c-1.68309,1.69789 -8.11681,3.71352 -12.41399,4.7963c-2.83003,0.71198 -5.79764,0.91064 -8.65543,0.66386c-1.77748,-0.1999 -3.74375,-0.72432 -4.93573,-1.97429c-1.28267,-1.34499 -1.59362,-3.41306 -1.9126,-5.24422c-0.47753,-2.74118 -0.01296,-5.50643 -0.46272,-8.20566c-0.27147,-1.62756 -0.6583,-3.46118 -1.75835,-4.78149c-1.4073,-1.66087 -3.36309,-2.8874 -5.42931,-3.7635c-2.64494,-1.12041 -5.85686,-0.57316 -8.39075,-2.00514c-0.71568,-0.40473 -0.2801,-2.36792 0.55527,-2.40617c3.32237,-0.15177 6.8181,0.70828 9.93316,2.00514z" fill="#a97a2a" stroke="none" stroke-width="1" stroke-linecap="round"/><g stroke="none" stroke-width="1" stroke-linecap="round"><path d="M230.63324,218.67263c2.5709,-0.15918 5.98396,0.75393 7.31105,2.28278c0.73974,0.78478 -2.28093,1.33635 -3.17738,2.34447c-0.87301,0.98098 -1.47517,2.19578 -1.9126,3.45501c-0.38746,1.11054 -0.44607,2.32411 -0.52442,3.54756c-0.18139,2.84051 0.28874,5.74334 -0.21594,8.54499c-0.09069,0.70889 -0.84895,0.52566 -1.32648,0.55527c-1.04514,0.06478 -2.82879,0.75147 -3.23907,-0.24679c-1.19075,-3.25203 -0.65769,-6.93409 -0.77121,-10.39589c-0.0364,-1.10252 0.19249,-2.16432 0.43188,-3.28535c0.28936,-1.34869 0.61697,-2.71959 1.20308,-3.96401c0.57193,-1.05625 1.02355,-2.76401 2.22108,-2.83805z" fill="#b4852d"/><path d="M229.59982,236.99654c1.08216,-0.11414 2.31177,0.38869 3.10766,1.01738c0.79589,0.62807 1.10499,1.54859 1.28823,2.45306c0.14746,0.72987 0.269,1.82314 -0.37018,2.20566c-1.1272,0.67434 -2.62581,0.40411 -3.94859,0.40103c-1.25985,0.00308 -2.66715,0.23321 -3.7635,-0.40103c-0.77985,-0.451 -1.20308,-1.57018 -1.11054,-2.46787c0.07959,-0.75023 0.91249,-1.23147 1.54242,-1.66581c0.989,-0.67558 2.04401,-1.41409 3.2545,-1.54242z" fill="#fdcb96"/><path d="M230.44815,236.7806c0.81378,0.0438 1.7201,0.01666 2.39877,0.45224c0.50344,0.32206 0.79033,1.06427 0.74776,1.70715c-0.00802,0.29799 -0.49542,0.37512 -0.86375,0.43188c-1.42211,0.211 -2.84483,0.3165 -4.31877,0.24679c-0.66201,-0.03208 -1.39064,-0.1271 -1.9126,-0.55527c-0.27023,-0.22272 -0.06293,-0.71136 0.09254,-1.04884c0.1999,-0.43064 0.54355,-0.89769 0.98715,-1.01799c0.92237,-0.31712 1.93234,-0.26591 2.86889,-0.21594z" fill="#cc9832"/></g><g stroke="none" stroke-linecap="round"><path d="M251.10494,188.70039c1.83147,0.25024 1.15052,0.30929 1.24084,2.5775c0.36031,9.07182 1.06711,18.28887 0,27.4151c-0.26406,2.18289 -1.95165,3.4088 -3.72259,4.21771c-2.24243,1.02441 -4.91179,0.70291 -7.44512,0.70291c-2.86094,0 -6.01765,0.35617 -8.68596,-0.70291c-1.93777,-0.77985 -3.88837,-2.17166 -4.21894,-4.45203c-1.32123,-9.12247 -0.65812,-18.38733 -0.24814,-27.64942c0.10223,-2.31597 -0.04368,-1.96263 1.73719,-2.10885c7.12547,-0.58674 14.32837,-0.76202 21.34273,0z" fill="url(#color-1)" stroke-width="1.56471"/><path d="M247.29134,195.59807c1.1383,0.16473 0.71506,0.2036 0.77121,1.69666c0.22396,5.97162 0.66324,12.03887 0,18.04627c-0.16411,1.43692 -1.21296,2.24391 -2.31362,2.77635c-1.39373,0.67434 -3.05275,0.46272 -4.62725,0.46272c-1.7781,0 -3.74005,0.23445 -5.39846,-0.46272c-1.20432,-0.51332 -2.41666,-1.42951 -2.62211,-2.93059c-0.82118,-6.00494 -0.40905,-12.10365 -0.15424,-18.20052c0.06355,-1.52452 -0.02715,-1.29193 1.07969,-1.38817c4.42859,-0.38622 8.9053,-0.50159 13.26478,0z" fill="url(#color-2)" stroke-width="1"/><path d="M240.50471,214.41556c0.34057,0 0.64905,0.10365 0.87239,0.27147c0.22334,0.1672 0.36154,0.39856 0.36154,0.65398c0,0.25542 -0.1382,0.48679 -0.36154,0.65398c-0.22334,0.16781 -0.53183,0.27147 -0.87239,0.27147c-0.34057,0 -0.64905,-0.10365 -0.87239,-0.27147c-0.22334,-0.1672 -0.36154,-0.39856 -0.36154,-0.65398c0,-0.25542 0.1382,-0.48679 0.36154,-0.65398c0.22334,-0.16781 0.53183,-0.27147 0.87239,-0.27147z" fill="#fccded" stroke-width="1"/></g><g stroke="none" stroke-width="1"><path d="M264.33505,214.10707c0.68977,0.04689 1.58499,-0.89213 2.08226,-0.46272c0.74344,0.84648 0.64473,2.23404 0.61697,3.23907c-0.01851,0.70889 -0.30231,1.46036 -0.79095,1.96257c-0.48864,0.50283 -1.1636,0.81378 -1.90828,0.81378c-0.74468,0 -1.41964,-0.31095 -1.90828,-0.81378c-0.48864,-0.50221 -0.76751,-1.25553 -0.79095,-1.96257c-0.03393,-0.99887 -0.1308,-2.39321 0.61697,-3.23907c0.49357,-0.43064 1.37645,0.41337 2.08226,0.46272z" fill="#fccd97" stroke-linecap="round"/><path d="M264.41217,205.16106c1.62694,3.00956 2.93923,6.64041 2.25193,10.02571c-0.29614,1.45357 -3.2471,1.87805 -4.31877,0.92545c-1.52144,-1.28082 -0.66386,-3.90787 -1.23393,-5.70694c-0.52812,-1.66519 -1.13645,-3.48524 -2.15938,-4.78149c-1.13213,-1.42828 -2.64864,-2.51476 -4.16452,-3.54756c-1.18026,-0.72987 -3.08298,-0.52751 -3.85604,-1.69666c-0.47753,-0.72679 0.36524,-2.34324 1.29563,-2.46787c2.16617,-0.12648 4.40514,0.74838 6.32391,1.8509c2.29388,1.32401 4.56062,2.99044 5.86118,5.39846z" fill="url(#color-3)" stroke-linecap="butt"/><path d="M264.25793,213.70604c0.80823,0 1.54118,0.17275 2.07177,0.45224c0.53059,0.27887 0.85882,0.66447 0.85882,1.09018c0,0.42571 -0.32823,0.81131 -0.85882,1.09018c-0.53059,0.27949 -1.26355,0.45224 -2.07177,0.45224c-0.80823,0 -1.54118,-0.17275 -2.07177,-0.45224c-0.53059,-0.27887 -0.85882,-0.66447 -0.85882,-1.09018c0,-0.42571 0.32823,-0.81131 0.85882,-1.09018c0.53059,-0.27949 1.26355,-0.45224 2.07177,-0.45224z" fill="#cd9934" stroke-linecap="round"/></g><g stroke="none" stroke-width="1"><path d="M216.82861,214.41556c0.68977,0.04689 1.58499,-0.89213 2.08226,-0.46272c0.74344,0.84648 0.64473,2.23404 0.61697,3.23907c-0.01851,0.70889 -0.30231,1.46036 -0.79095,1.96257c-0.48864,0.50283 -1.1636,0.81378 -1.90828,0.81378c-0.74468,0 -1.41964,-0.31095 -1.90828,-0.81378c-0.48864,-0.50221 -0.76751,-1.25553 -0.79095,-1.96257c-0.03393,-0.99887 -0.1308,-2.39321 0.61697,-3.23907c0.49357,-0.43064 1.37645,0.41337 2.08226,0.46272z" fill="#fccd97" stroke-linecap="round"/><path d="M223.22964,198.99139c1.24936,-0.80144 2.96884,-1.08648 4.47301,-0.77121c1.06612,0.22396 2.62766,1.37522 2.31362,2.31362c-0.3856,1.13769 -2.67578,0.96679 -3.85604,1.69666c-1.51589,1.0328 -3.03239,2.11928 -4.16452,3.54756c-1.02293,1.29625 -1.63126,3.1163 -2.15938,4.78149c-0.57008,1.79907 0.28751,4.42612 -1.23393,5.70694c-1.07167,0.9526 -4.05717,0.52195 -4.31877,-0.92545c-0.60154,-3.33656 0.72185,-6.80453 2.31362,-9.71722c1.47393,-2.71342 4.03064,-4.86663 6.63239,-6.63239z" fill="url(#color-4)" stroke-linecap="butt"/><path d="M216.90574,213.95283c0.80823,0 1.54118,0.17275 2.07177,0.45224c0.53059,0.27887 0.85882,0.66447 0.85882,1.09018c0,0.42571 -0.32823,0.81131 -0.85882,1.09018c-0.53059,0.27949 -1.26355,0.45224 -2.07177,0.45224c-0.80823,0 -1.54118,-0.17275 -2.07177,-0.45224c-0.53059,-0.27887 -0.85882,-0.66447 -0.85882,-1.09018c0,-0.42571 0.32823,-0.81131 0.85882,-1.09018c0.53059,-0.27949 1.26355,-0.45224 2.07177,-0.45224z" fill="#cd9934" stroke-linecap="round"/></g><g fill="#cd9934" stroke="none" stroke-width="1" stroke-linecap="butt"><path d="M228.2425,191.74203c1.21296,0 2.31177,0.5528 3.10766,1.44679c0.79589,0.89337 1.28823,2.1273 1.28823,3.48895c0,1.36165 -0.49234,2.59558 -1.28823,3.48895c-0.79589,0.89398 -1.8947,1.44679 -3.10766,1.44679c-1.21296,0 -2.31177,-0.5528 -3.10766,-1.44679c-0.79589,-0.89337 -1.28823,-2.1273 -1.28823,-3.48895c0,-1.36165 0.49234,-2.59558 1.28823,-3.48895c0.79589,-0.89398 1.8947,-1.44679 3.10766,-1.44679z"/><path d="M236.01628,191.58779c1.21296,0 2.31177,0.5528 3.10766,1.44679c0.79589,0.89337 1.28823,2.1273 1.28823,3.48895c0,1.36165 -0.49234,2.59558 -1.28823,3.48895c-0.79589,0.89398 -1.8947,1.44679 -3.10766,1.44679c-1.21296,0 -2.31177,-0.5528 -3.10766,-1.44679c-0.79589,-0.89337 -1.28823,-2.1273 -1.28823,-3.48895c0,-1.36165 0.49234,-2.59558 1.28823,-3.48895c0.79589,-0.89398 1.8947,-1.44679 3.10766,-1.44679z"/><path d="M244.59211,191.58779c1.21296,0 2.31177,0.5528 3.10766,1.44679c0.79589,0.89337 1.28823,2.1273 1.28823,3.48895c0,1.36165 -0.49234,2.59558 -1.28823,3.48895c-0.79589,0.89398 -1.8947,1.44679 -3.10766,1.44679c-1.21296,0 -2.31177,-0.5528 -3.10766,-1.44679c-0.79589,-0.89337 -1.28823,-2.1273 -1.28823,-3.48895c0,-1.36165 0.49234,-2.59558 1.28823,-3.48895c0.79589,-0.89398 1.8947,-1.44679 3.10766,-1.44679z"/><path d="M253.0754,191.43355c1.21296,0 2.31177,0.5528 3.10766,1.44679c0.79589,0.89337 1.28823,2.1273 1.28823,3.48895c0,1.36165 -0.49234,2.59558 -1.28823,3.48895c-0.79589,0.89398 -1.8947,1.44679 -3.10766,1.44679c-1.21296,0 -2.31177,-0.5528 -3.10766,-1.44679c-0.79589,-0.89337 -1.28823,-2.1273 -1.28823,-3.48895c0,-1.36165 0.49234,-2.59558 1.28823,-3.48895c0.79589,-0.89398 1.8947,-1.44679 3.10766,-1.44679z"/><path d="M240.04198,190.35386c3.78756,0 7.21913,0.42324 9.70427,1.10746c2.48514,0.68422 4.02324,1.62879 4.02324,2.67147c0,1.04267 -1.5381,1.98725 -4.02324,2.67147c-2.48514,0.68422 -5.91671,1.10746 -9.70427,1.10746c-3.78756,0 -7.21913,-0.42324 -9.70427,-1.10746c-2.48514,-0.68422 -4.02324,-1.62879 -4.02324,-2.67147c0,-1.04267 1.5381,-1.98725 4.02324,-2.67147c2.48514,-0.68422 5.91671,-1.10746 9.70427,-1.10746z"/></g><g><g stroke="none" stroke-linecap="butt"><path d="M215.05484,157.03766c2.25563,0 4.29902,0.86437 5.77913,2.26057c1.47949,1.39558 2.39568,3.3236 2.39568,5.45152c0,2.12792 -0.9162,4.05594 -2.39568,5.45152c-1.4801,1.3962 -3.5235,2.26057 -5.77913,2.26057c-2.25563,0 -4.29902,-0.86437 -5.77913,-2.26057c-1.47949,-1.39558 -2.39568,-3.3236 -2.39568,-5.45152c0,-2.12792 0.9162,-4.05594 2.39568,-5.45152c1.4801,-1.3962 3.5235,-2.26057 5.77913,-2.26057z" fill="url(#color-5)" stroke-width="1"/><path d="M214.51499,159.96054c1.38324,0 2.6363,0.54416 3.54386,1.4239c0.90756,0.87973 1.469,2.09435 1.469,3.43471c0,1.3403 -0.56144,2.55498 -1.469,3.43471c-0.90756,0.87973 -2.16062,1.4239 -3.54386,1.4239c-1.38324,0 -2.6363,-0.54416 -3.54386,-1.4239c-0.90756,-0.87973 -1.469,-2.09442 -1.469,-3.43471c0,-1.34036 0.56144,-2.55498 1.469,-3.43471c0.90756,-0.87973 2.16062,-1.4239 3.54386,-1.4239z" fill="#fecc99" stroke-width="1.0253"/></g><g stroke="none" stroke-linecap="butt"><path d="M265.49186,157.1919c2.25563,0 4.29902,0.86437 5.77913,2.26057c1.47949,1.39558 2.39568,3.3236 2.39568,5.45152c0,2.12792 -0.9162,4.05594 -2.39568,5.45152c-1.4801,1.3962 -3.5235,2.26057 -5.77913,2.26057c-2.25563,0 -4.29902,-0.86437 -5.77913,-2.26057c-1.47949,-1.39558 -2.39568,-3.3236 -2.39568,-5.45152c0,-2.12792 0.9162,-4.05594 2.39568,-5.45152c1.4801,-1.3962 3.5235,-2.26057 5.77913,-2.26057z" fill="url(#color-6)" stroke-width="1"/><path d="M266.34019,160.11478c1.38324,0 2.6363,0.54416 3.54386,1.4239c0.90756,0.87973 1.469,2.09435 1.469,3.43471c0,1.3403 -0.56144,2.55498 -1.469,3.43471c-0.90756,0.87973 -2.16062,1.4239 -3.54386,1.4239c-1.38324,0 -2.6363,-0.54416 -3.54386,-1.4239c-0.90756,-0.87973 -1.469,-2.09442 -1.469,-3.43471c0,-1.34036 0.56144,-2.55498 1.469,-3.43471c0.90756,-0.87973 2.16062,-1.4239 3.54386,-1.4239z" fill="#fecc99" stroke-width="1.0253"/></g><g stroke="none"><g><g><path d="M240.54901,141.52662c6.90447,0 13.16107,2.76537 17.69152,7.23258c4.53045,4.46789 7.33475,10.63755 7.33475,17.44609c0,6.80854 -2.8043,12.9782 -7.33475,17.44603c-4.53045,4.46721 -10.78704,7.23264 -17.69152,7.23264c-6.90441,0 -13.16101,-2.76543 -17.69146,-7.23264c-4.53045,-4.46783 -7.33475,-10.63749 -7.33475,-17.44603c0,-6.80854 2.8043,-12.9782 7.33475,-17.44609c4.53045,-4.46721 10.78704,-7.23258 17.69146,-7.23258z" fill="#cd9933" stroke-width="1.12676" stroke-linecap="butt"/><path d="M244.20651,150.86799c3.45255,-0.20977 7.11671,0.60278 9.87147,2.46787c3.12185,2.16123 5.57183,5.45954 6.78663,8.94602c1.08771,3.09964 0.16596,6.53059 0,9.87147c-0.04134,0.83537 -0.57255,-0.35044 -0.30848,0c1.05501,1.40113 2.65419,2.54067 3.54756,4.16452c0.59229,1.29625 1.01429,2.87815 0.77121,4.31877c-0.40411,2.39136 -0.77738,5.2146 -2.62211,6.78663c-3.56668,3.0256 -8.22231,5.20535 -12.9563,6.16967c-5.68165,1.1926 -11.68103,1.02108 -17.58355,0.15424c-4.38108,-0.64411 -8.79177,-2.11188 -12.49357,-4.62725c-2.05018,-1.44617 -3.20021,-4.09357 -3.85604,-6.63239c-0.5164,-2.00452 0.01913,-4.12997 0.77121,-6.16967c0.57069,-1.5418 2.01563,-2.5746 3.08483,-3.85604c0.26715,-0.32021 0.53368,-0.211 0.61697,-0.92545c0.33316,-2.85717 -0.49111,-5.87291 0.30848,-8.63753c0.88781,-3.05954 2.32226,-6.48926 4.93573,-8.63753c2.55979,-2.03476 6.09131,-3.02252 9.56298,-3.08483c2.0255,-0.03393 3.58951,2.06005 5.24422,3.08483c0.41398,0.25604 -0.64165,0.28689 -0.30848,0c1.32833,-1.14571 2.71712,-3.27671 4.62725,-3.39332z" fill="#ffcb99" stroke-width="1" stroke-linecap="round"/></g><path d="M240.66136,176.05066c2.94898,0.0042 6.08366,-0.45477 8.63291,0.88269c2.17709,1.1475 4.33728,3.35568 4.44882,5.71996c0.05719,2.41296 -1.94055,4.7652 -4.0336,5.90283c-2.68911,1.46178 -6.09631,1.05785 -9.20699,1.01756c-2.95743,0.04029 -6.19453,0.34674 -8.88926,-1.01756c-2.1347,-1.07975 -4.38176,-3.17985 -4.52792,-5.58509c-0.00426,-2.3536 2.06764,-4.75317 4.16638,-5.86118c2.79079,-1.47375 6.25808,-1.06279 9.40967,-1.05921z" fill="url(#color-7)" stroke-width="1.14458" stroke-linecap="round"/><path d="M222.61268,180.79087c1.06365,0 2.02797,0.39733 2.72576,1.03959c0.69841,0.64226 1.13028,1.52946 1.13028,2.50797c0,0.97851 -0.43188,1.86571 -1.13028,2.50797c-0.69779,0.64226 -1.66211,1.03959 -2.72576,1.03959c-1.06365,0 -2.02797,-0.39733 -2.72576,-1.03959c-0.69841,-0.64226 -1.13028,-1.52946 -1.13028,-2.50797c0,-0.97851 0.43188,-1.86571 1.13028,-2.50797c0.69779,-0.64226 1.66211,-1.03959 2.72576,-1.03959z" fill="url(#color-8)" stroke-width="1" stroke-linecap="round"/><path d="M258.2425,180.01967c1.06365,0 2.02797,0.39733 2.72576,1.03959c0.69841,0.64226 1.13028,1.52946 1.13028,2.50797c0,0.97851 -0.43188,1.86571 -1.13028,2.50797c-0.69779,0.64226 -1.66211,1.03959 -2.72576,1.03959c-1.06365,0 -2.02797,-0.39733 -2.72576,-1.03959c-0.69841,-0.64226 -1.13028,-1.52946 -1.13028,-2.50797c0,-0.97851 0.43188,-1.86571 1.13028,-2.50797c0.69779,-0.64226 1.66211,-1.03959 2.72576,-1.03959z" fill="url(#color-9)" stroke-width="1" stroke-linecap="butt"/></g><path d="M236.95715,136.832c0.42262,-0.00679 0.36833,1.93481 0.92545,2.77635c0.54972,0.77553 1.59054,1.08339 2.31362,1.69666c0.58242,0.49296 1.47764,0.78602 1.69666,1.54242c0.19743,0.45841 -0.30108,0.95877 -0.70087,1.3456c-0.45656,0.43805 -1.03033,0.81378 -1.68987,0.81378c-0.65954,0 -1.38201,-0.27023 -1.68987,-0.81378c-0.82427,-1.55414 -1.46776,-3.07928 -1.62632,-4.73892c-0.08946,-0.98776 0.42571,-2.69306 0.77121,-2.62211z" fill="#cd9933" stroke-width="1" stroke-linecap="round"/></g><g><g stroke="none" stroke-linecap="butt"><path d="M227.64096,163.51581c1.2765,0 2.43332,0.86437 3.27116,2.26057c0.83784,1.39558 1.35609,3.3236 1.35609,5.45152c0,2.12792 -0.51825,4.05594 -1.35609,5.45152c-0.83784,1.3962 -1.99465,2.26057 -3.27116,2.26057c-1.2765,0 -2.43332,-0.86437 -3.27116,-2.26057c-0.83784,-1.39558 -1.35609,-3.3236 -1.35609,-5.45152c0,-2.12792 0.51825,-4.05594 1.35609,-5.45152c0.83784,-1.3962 1.99465,-2.26057 3.27116,-2.26057z" fill="#ffffff" stroke-width="1"/><path d="M228.73607,165.6304c0.9149,0 1.7441,0.4837 2.34447,1.26595c0.60031,0.78164 0.97172,1.86114 0.97172,3.05281c0,1.19161 -0.37141,2.27118 -0.97172,3.05275c-0.60037,0.78231 -1.42957,1.26602 -2.34447,1.26602c-0.9149,0 -1.7441,-0.4837 -2.34447,-1.26602c-0.60031,-0.78157 -0.97172,-1.86114 -0.97172,-3.05275c0,-1.19167 0.37141,-2.27118 0.97172,-3.05281c0.60037,-0.78225 1.42957,-1.26595 2.34447,-1.26595z" fill="#9a6732" stroke-width="1.14582"/></g><g stroke="none" stroke-linecap="butt"><path d="M252.78235,163.82429c1.2765,0 2.43332,0.86437 3.27116,2.26057c0.83784,1.39558 1.35609,3.3236 1.35609,5.45152c0,2.12792 -0.51825,4.05594 -1.35609,5.45152c-0.83784,1.3962 -1.99465,2.26057 -3.27116,2.26057c-1.2765,0 -2.43332,-0.86437 -3.27116,-2.26057c-0.83784,-1.39558 -1.35609,-3.3236 -1.35609,-5.45152c0,-2.12792 0.51825,-4.05594 1.35609,-5.45152c0.83784,-1.3962 1.99465,-2.26057 3.27116,-2.26057z" fill="#ffffff" stroke-width="1"/><path d="M251.74893,165.93888c0.9149,0 1.7441,0.4837 2.34447,1.26595c0.60031,0.78164 0.97172,1.86114 0.97172,3.05281c0,1.19161 -0.37141,2.27118 -0.97172,3.05275c-0.60037,0.78231 -1.42957,1.26602 -2.34447,1.26602c-0.9149,0 -1.7441,-0.4837 -2.34447,-1.26602c-0.60031,-0.78157 -0.97172,-1.86114 -0.97172,-3.05275c0,-1.19167 0.37141,-2.27118 0.97172,-3.05281c0.60037,-0.78225 1.42957,-1.26595 2.34447,-1.26595z" fill="#9a6732" stroke-width="1.14582"/></g><g><path d="M240.47386,175.39242c1.19136,0 2.27105,0.2764 3.05275,0.72308c0.78231,0.44668 1.26602,1.06365 1.26602,1.74478c0,0.68113 -0.4837,1.2981 -1.26602,1.74478c-0.7817,0.44668 -1.86139,0.72308 -3.05275,0.72308c-1.19136,0 -2.27105,-0.2764 -3.05275,-0.72308c-0.78231,-0.44668 -1.26602,-1.06365 -1.26602,-1.74478c0,-0.68113 0.4837,-1.2981 1.26602,-1.74478c0.7817,-0.44668 1.86139,-0.72308 3.05275,-0.72308z" fill="#343432" stroke="none" stroke-width="1" stroke-linecap="butt"/><path d="M240.31962,177.85454v4.43877" fill="none" stroke="#343432" stroke-width="2.57151" stroke-linecap="round"/><path d="M240.29383,183.8704c1.50817,-0.00481 3.03338,0.15097 4.51626,0.44298c0.37086,0.07286 0.31768,0.21736 0.22741,0.45723c-0.4407,0.96574 -0.79188,2.08165 -1.62935,2.7252c-0.82606,0.63399 -1.96189,0.89559 -3.00222,0.87702c-1.03984,-0.02098 -2.17296,-0.36925 -2.98822,-1.03644c-0.78244,-0.63967 -1.1293,-1.68265 -1.5455,-2.58447c-0.08403,-0.25277 -0.10803,-0.37314 0.23599,-0.43786c1.37719,-0.26017 2.79147,-0.4423 4.18563,-0.44366z" fill="#343432" stroke="none" stroke-width="1" stroke-linecap="round"/></g></g></g><g stroke="none" stroke-width="1" stroke-linecap="round"><path d="M254.11838,217.76554c0.58656,1.24537 0.91442,2.6173 1.204,3.96702c0.23956,1.12188 0.46863,2.18448 0.4322,3.28784c-0.11361,3.46442 0.41986,7.14927 -0.77179,10.40377c-0.41059,0.99901 -2.1956,0.3118 -3.24153,0.24697c-0.47789,-0.02964 -1.23672,0.15374 -1.32748,-0.55569c-0.50506,-2.80377 -0.03458,-5.7088 -0.2161,-8.55147c-0.07841,-1.22437 -0.13707,-2.43887 -0.52482,-3.55025c-0.43776,-1.26018 -1.04038,-2.47591 -1.91405,-3.45763c-0.89713,-1.00889 -3.92009,-1.56087 -3.17979,-2.34625c1.3281,-1.53 4.74375,-2.44381 7.3166,-2.28451c1.19844,0.07409 1.6504,1.78315 2.22276,2.8402z" fill="url(#color-10)"/><path d="M256.55725,234.65237c0.6304,0.43467 1.46394,0.91627 1.54359,1.66707c0.09262,0.89837 -0.33094,2.01839 -1.11138,2.46974c-1.09718,0.63472 -2.50555,0.40442 -3.76635,0.40133c-1.32378,0.00309 -2.82353,0.27352 -3.95158,-0.40133c-0.63966,-0.38281 -0.51803,-1.4769 -0.37046,-2.20733c0.18338,-0.90516 0.49271,-1.82637 1.2892,-2.45492c0.79649,-0.62917 2.02704,-1.13237 3.11002,-1.01815c1.21141,0.12843 2.26722,0.8675 3.25697,1.54359z" fill="url(#color-11)"/><path d="M255.35325,233.23227c0.44394,0.1204 0.78785,0.5878 0.98789,1.01877c0.15559,0.33774 0.36305,0.82674 0.09262,1.04964c-0.52235,0.4285 -1.25154,0.52358 -1.91405,0.55569c-1.47505,0.06977 -2.89885,-0.03581 -4.32204,-0.24697c-0.36861,-0.0568 -0.85638,-0.13398 -0.86441,-0.4322c-0.0426,-0.64337 0.2445,-1.38614 0.74833,-1.70844c0.67918,-0.43591 1.58619,-0.40874 2.40058,-0.45258c0.93727,-0.05001 1.94801,-0.10126 2.87107,0.2161z" fill="url(#color-12)"/></g><path d="M210.83623,196.43318c2.21412,0.92183 4.0479,2.69016 5.71127,4.41466c0.9101,1.01691 1.51889,2.33081 1.8523,3.64286c0.56001,2.20362 0.45937,4.53197 0.71005,6.79178c0.22907,2.06161 -0.02408,4.16953 0.67918,6.08173c0.40565,1.10027 1.28241,2.08693 2.31538,2.40799c1.73746,0.5878 3.66633,0.30254 5.40255,0.12349c2.08384,-0.21301 4.17509,-0.47851 6.17434,-1.204c1.43862,-0.52173 2.49752,-2.17522 3.95158,-2.34625c2.24067,-0.26303 7.65619,0.05372 6.69916,1.01877c-1.68436,1.69918 -8.12297,3.71634 -12.4234,4.79993c-2.83217,0.71252 -5.80203,0.91133 -8.66199,0.66436c-1.77883,-0.20005 -3.74659,-0.72487 -4.93947,-1.97579c-1.28365,-1.34601 -1.59483,-3.41565 -1.91405,-5.24819c-0.47789,-2.74326 -0.01297,-5.5106 -0.46308,-8.21188c-0.27167,-1.62879 -0.6588,-3.46381 -1.75969,-4.78512c-1.40837,-1.66213 -3.36563,-2.88959 -5.43342,-3.76635c-2.64694,-1.12126 -5.8613,-0.5736 -8.39711,-2.00666c-0.71622,-0.40504 -0.28032,-2.36971 0.55569,-2.40799c3.32488,-0.15189 6.82327,0.70881 9.94069,2.00666z" fill="url(#color-13)" stroke="none" stroke-width="1" stroke-linecap="round"/><g stroke="none" stroke-width="1" stroke-linecap="round"><path d="M232.13772,214.98709c2.57285,-0.1593 5.9885,0.7545 7.3166,2.28451c0.7403,0.78538 -2.28265,1.33736 -3.17979,2.34625c-0.87367,0.98172 -1.47629,2.19745 -1.91405,3.45763c-0.38775,1.11138 -0.44641,2.32588 -0.52482,3.55025c-0.18153,2.84267 0.28896,5.7477 -0.2161,8.55147c-0.09076,0.70943 -0.84959,0.52605 -1.32748,0.55569c-1.04593,0.06483 -2.83094,0.75204 -3.24153,-0.24697c-1.19165,-3.2545 -0.65818,-6.93934 -0.77179,-10.40377c-0.03643,-1.10336 0.19264,-2.16596 0.4322,-3.28784c0.28958,-1.34971 0.61743,-2.72165 1.204,-3.96702c0.57236,-1.05705 1.02432,-2.76611 2.22276,-2.8402z" fill="url(#color-14)"/><path d="M231.10352,233.32488c1.08298,-0.11423 2.31353,0.38898 3.11002,1.01815c0.79649,0.62855 1.10582,1.54976 1.2892,2.45492c0.14757,0.73042 0.2692,1.82452 -0.37046,2.20733c-1.12805,0.67486 -2.6278,0.40442 -3.95158,0.40133c-1.2608,0.00309 -2.66917,0.23339 -3.76635,-0.40133c-0.78044,-0.45134 -1.204,-1.57137 -1.11138,-2.46974c0.07965,-0.7508 0.91319,-1.2324 1.54359,-1.66707c0.98975,-0.67609 2.04556,-1.41516 3.25697,-1.54359z" fill="url(#color-15)"/><path d="M231.95249,233.10878c0.8144,0.04384 1.72141,0.01667 2.40058,0.45258c0.50383,0.3223 0.79093,1.06507 0.74833,1.70844c-0.00803,0.29822 -0.4958,0.3754 -0.86441,0.4322c-1.42319,0.21116 -2.84699,0.31674 -4.32204,0.24697c-0.66251,-0.03211 -1.3917,-0.12719 -1.91405,-0.55569c-0.27044,-0.22289 -0.06298,-0.7119 0.09262,-1.04964c0.20005,-0.43097 0.54396,-0.89837 0.98789,-1.01877c0.92306,-0.31736 1.9338,-0.26611 2.87107,-0.2161z" fill="url(#color-16)"/></g><g stroke="none" stroke-linecap="round"><path d="M252.62493,184.99213c1.83285,0.25043 1.15139,0.30952 1.24178,2.57946c0.36058,9.07869 1.06791,18.30273 0,27.43588c-0.26426,2.18454 -1.95313,3.41139 -3.72541,4.2209c-2.24413,1.02519 -4.91552,0.70344 -7.45077,0.70344c-2.8631,0 -6.02221,0.35644 -8.69255,-0.70344c-1.93924,-0.78044 -3.89132,-2.17331 -4.22214,-4.45541c-1.32224,-9.12938 -0.65862,-18.40127 -0.24833,-27.67038c0.10231,-2.31772 -0.04371,-1.96412 1.73851,-2.11045c7.13087,-0.58718 14.33923,-0.76259 21.35891,0z" fill="url(#color-17)" stroke-width="1.56471"/><path d="M248.80845,191.89504c1.13917,0.16485 0.71561,0.20375 0.77179,1.69794c0.22413,5.97615 0.66374,12.048 0,18.05995c-0.16424,1.438 -1.21388,2.24561 -2.31538,2.77845c-1.39478,0.67486 -3.05507,0.46308 -4.63076,0.46308c-1.77945,0 -3.74289,0.23463 -5.40255,-0.46308c-1.20523,-0.51371 -2.41849,-1.4306 -2.6241,-2.93281c-0.82181,-6.00949 -0.40936,-12.11283 -0.15436,-18.21431c0.0636,-1.52568 -0.02717,-1.29291 1.08051,-1.38923c4.43194,-0.38651 8.91205,-0.50197 13.27484,0z" fill="url(#color-18)" stroke-width="1"/><path d="M242.01667,210.72679c0.34082,0 0.64954,0.10373 0.87305,0.27167c0.22351,0.16732 0.36182,0.39886 0.36182,0.65448c0,0.25562 -0.13831,0.48716 -0.36182,0.65448c-0.22351,0.16794 -0.53223,0.27167 -0.87305,0.27167c-0.34082,0 -0.64954,-0.10373 -0.87305,-0.27167c-0.22351,-0.16732 -0.36182,-0.39886 -0.36182,-0.65448c0,-0.25562 0.13831,-0.48716 0.36182,-0.65448c0.22351,-0.16794 0.53223,-0.27167 0.87305,-0.27167z" fill="#fccded" stroke-width="1"/></g><g stroke="none" stroke-width="1"><path d="M265.86507,210.41807c0.69029,0.04693 1.58619,-0.89281 2.08384,-0.46308c0.74401,0.84712 0.64522,2.23573 0.61743,3.24153c-0.01852,0.70943 -0.30254,1.46147 -0.79155,1.96406c-0.48901,0.50321 -1.16448,0.8144 -1.90972,0.8144c-0.74524,0 -1.42072,-0.31119 -1.90972,-0.8144c-0.48901,-0.50259 -0.76809,-1.25648 -0.79155,-1.96406c-0.03396,-0.99963 -0.1309,-2.39503 0.61743,-3.24153c0.49395,-0.43097 1.3775,0.41368 2.08384,0.46308z" fill="url(#color-19)" stroke-linecap="round"/><path d="M265.94225,201.46527c1.62817,3.01184 2.94146,6.64545 2.25364,10.03331c-0.29637,1.45468 -3.24956,1.87947 -4.32204,0.92615c-1.52259,-1.28179 -0.66436,-3.91083 -1.23487,-5.71127c-0.52852,-1.66646 -1.13731,-3.48789 -2.16102,-4.78512c-1.13299,-1.42936 -2.65065,-2.51666 -4.16768,-3.55025c-1.18115,-0.73042 -3.08532,-0.52791 -3.85896,-1.69794c-0.47789,-0.72734 0.36552,-2.34502 1.29661,-2.46974c2.16781,-0.12657 4.40848,0.74895 6.3287,1.8523c2.29562,1.32501 4.56407,2.9927 5.86563,5.40255z" fill="url(#color-20)" stroke-linecap="butt"/><path d="M265.78789,210.01674c0.80884,0 1.54235,0.17288 2.07334,0.45258c0.53099,0.27908 0.85947,0.66498 0.85947,1.09101c0,0.42603 -0.32848,0.81193 -0.85947,1.09101c-0.53099,0.2797 -1.26451,0.45258 -2.07334,0.45258c-0.80884,0 -1.54235,-0.17288 -2.07334,-0.45258c-0.53099,-0.27908 -0.85947,-0.66498 -0.85947,-1.09101c0,-0.42603 0.32848,-0.81193 0.85947,-1.09101c0.53099,-0.2797 1.26451,-0.45258 2.07334,-0.45258z" fill="#cd9934" stroke-linecap="round"/></g><g stroke="none" stroke-width="1"><path d="M218.32263,210.72679c0.69029,0.04693 1.58619,-0.89281 2.08384,-0.46308c0.74401,0.84712 0.64522,2.23573 0.61743,3.24153c-0.01852,0.70943 -0.30254,1.46147 -0.79155,1.96406c-0.48901,0.50321 -1.16448,0.8144 -1.90972,0.8144c-0.74524,0 -1.42072,-0.31119 -1.90972,-0.8144c-0.48901,-0.50259 -0.76809,-1.25648 -0.79155,-1.96406c-0.03396,-0.99963 -0.1309,-2.39503 0.61743,-3.24153c0.49395,-0.43097 1.3775,0.41368 2.08384,0.46308z" fill="url(#color-21)" stroke-linecap="round"/><path d="M224.72851,195.29093c1.2503,-0.80205 2.97109,-1.0873 4.4764,-0.77179c1.06693,0.22413 2.62965,1.37626 2.31538,2.31538c-0.3859,1.13855 -2.67781,0.96752 -3.85896,1.69794c-1.51704,1.03359 -3.03469,2.12089 -4.16768,3.55025c-1.02371,1.29723 -1.6325,3.11866 -2.16102,4.78512c-0.57051,1.80044 0.28772,4.42947 -1.23487,5.71127c-1.07248,0.95332 -4.06025,0.52235 -4.32204,-0.92615c-0.602,-3.33908 0.7224,-6.80968 2.31538,-9.72459c1.47505,-2.71548 4.0337,-4.87032 6.63742,-6.63742z" fill="url(#color-22)" stroke-linecap="butt"/><path d="M218.3998,210.26371c0.80884,0 1.54235,0.17288 2.07334,0.45258c0.53099,0.27908 0.85947,0.66498 0.85947,1.09101c0,0.42603 -0.32848,0.81193 -0.85947,1.09101c-0.53099,0.2797 -1.26451,0.45258 -2.07334,0.45258c-0.80884,0 -1.54235,-0.17288 -2.07334,-0.45258c-0.53099,-0.27908 -0.85947,-0.66498 -0.85947,-1.09101c0,-0.42603 0.32848,-0.81193 0.85947,-1.09101c0.53099,-0.2797 1.26451,-0.45258 2.07334,-0.45258z" fill="#cd9934" stroke-linecap="round"/></g><g stroke="none" stroke-width="1" stroke-linecap="butt"><path d="M229.74516,188.03608c1.21388,0 2.31353,0.55322 3.11002,1.44788c0.79649,0.89404 1.2892,2.12891 1.2892,3.49159c0,1.36268 -0.49271,2.59755 -1.2892,3.49159c-0.79649,0.89466 -1.89614,1.44788 -3.11002,1.44788c-1.21388,0 -2.31353,-0.55322 -3.11002,-1.44788c-0.79649,-0.89404 -1.2892,-2.12891 -1.2892,-3.49159c0,-1.36268 0.49271,-2.59755 1.2892,-3.49159c0.79649,-0.89466 1.89614,-1.44788 3.11002,-1.44788z" fill="url(#color-23)"/><path d="M237.52483,187.88172c1.21388,0 2.31353,0.55322 3.11002,1.44788c0.79649,0.89404 1.2892,2.12891 1.2892,3.49159c0,1.36268 -0.49271,2.59755 -1.2892,3.49159c-0.79649,0.89466 -1.89614,1.44788 -3.11002,1.44788c-1.21388,0 -2.31353,-0.55322 -3.11002,-1.44788c-0.79649,-0.89404 -1.2892,-2.12891 -1.2892,-3.49159c0,-1.36268 0.49271,-2.59755 1.2892,-3.49159c0.79649,-0.89466 1.89614,-1.44788 3.11002,-1.44788z" fill="url(#color-24)"/><path d="M246.10717,187.88172c1.21388,0 2.31353,0.55322 3.11002,1.44788c0.79649,0.89404 1.2892,2.12891 1.2892,3.49159c0,1.36268 -0.49271,2.59755 -1.2892,3.49159c-0.79649,0.89466 -1.89614,1.44788 -3.11002,1.44788c-1.21388,0 -2.31353,-0.55322 -3.11002,-1.44788c-0.79649,-0.89404 -1.2892,-2.12891 -1.2892,-3.49159c0,-1.36268 0.49271,-2.59755 1.2892,-3.49159c0.79649,-0.89466 1.89614,-1.44788 3.11002,-1.44788z" fill="url(#color-25)"/><path d="M254.59689,187.72736c1.21388,0 2.31353,0.55322 3.11002,1.44788c0.79649,0.89404 1.2892,2.12891 1.2892,3.49159c0,1.36268 -0.49271,2.59755 -1.2892,3.49159c-0.79649,0.89466 -1.89614,1.44788 -3.11002,1.44788c-1.21388,0 -2.31353,-0.55322 -3.11002,-1.44788c-0.79649,-0.89404 -1.2892,-2.12891 -1.2892,-3.49159c0,-1.36268 0.49271,-2.59755 1.2892,-3.49159c0.79649,-0.89466 1.89614,-1.44788 3.11002,-1.44788z" fill="url(#color-26)"/><path d="M241.55359,186.64685c3.79043,0 7.2246,0.42356 9.71162,1.10829c2.48703,0.68473 4.02629,1.63003 4.02629,2.67349c0,1.04346 -1.53926,1.98876 -4.02629,2.67349c-2.48703,0.68473 -5.9212,1.10829 -9.71162,1.10829c-3.79043,0 -7.2246,-0.42356 -9.71162,-1.10829c-2.48703,-0.68473 -4.02629,-1.63003 -4.02629,-2.67349c0,-1.04346 1.53926,-1.98876 4.02629,-2.67349c2.48703,-0.68473 5.9212,-1.10829 9.71162,-1.10829z" fill="url(#color-27)"/></g><g><g stroke="none" stroke-linecap="butt"><path d="M216.5475,153.3054c2.25734,0 4.30228,0.86503 5.78351,2.26228c1.48061,1.39664 2.3975,3.32612 2.3975,5.45565c0,2.12953 -0.91689,4.05901 -2.3975,5.45565c-1.48122,1.39725 -3.52617,2.26228 -5.78351,2.26228c-2.25734,0 -4.30228,-0.86503 -5.78351,-2.26228c-1.48061,-1.39664 -2.3975,-3.32612 -2.3975,-5.45565c0,-2.12953 0.91689,-4.05901 2.3975,-5.45565c1.48122,-1.39725 3.52617,-2.26228 5.78351,-2.26228z" fill="url(#color-28)" stroke-width="1"/><path d="M216.00725,156.23049c1.38429,0 2.6383,0.54458 3.54654,1.42498c0.90825,0.8804 1.47011,2.09594 1.47011,3.43732c0,1.34131 -0.56187,2.55692 -1.47011,3.43732c-0.90825,0.8804 -2.16226,1.42498 -3.54654,1.42498c-1.38429,0 -2.6383,-0.54458 -3.54654,-1.42498c-0.90825,-0.8804 -1.47011,-2.096 -1.47011,-3.43732c0,-1.34138 0.56187,-2.55692 1.47011,-3.43732c0.90825,-0.8804 2.16226,-1.42498 3.54654,-1.42498z" fill="#fecc99" stroke-width="1.0253"/></g><g stroke="none" stroke-linecap="butt"><path d="M267.02276,153.45975c2.25734,0 4.30228,0.86503 5.78351,2.26228c1.48061,1.39664 2.3975,3.32612 2.3975,5.45565c0,2.12953 -0.91689,4.05901 -2.3975,5.45565c-1.48122,1.39725 -3.52617,2.26228 -5.78351,2.26228c-2.25734,0 -4.30228,-0.86503 -5.78351,-2.26228c-1.48061,-1.39664 -2.3975,-3.32612 -2.3975,-5.45565c0,-2.12953 0.91689,-4.05901 2.3975,-5.45565c1.48122,-1.39725 3.52617,-2.26228 5.78351,-2.26228z" fill="url(#color-29)" stroke-width="1"/><path d="M267.87173,156.38485c1.38429,0 2.6383,0.54458 3.54654,1.42498c0.90825,0.8804 1.47011,2.09594 1.47011,3.43732c0,1.34131 -0.56187,2.55692 -1.47011,3.43732c-0.90825,0.8804 -2.16226,1.42498 -3.54654,1.42498c-1.38429,0 -2.6383,-0.54458 -3.54654,-1.42498c-0.90825,-0.8804 -1.47011,-2.096 -1.47011,-3.43732c0,-1.34138 0.56187,-2.55692 1.47011,-3.43732c0.90825,-0.8804 2.16226,-1.42498 3.54654,-1.42498z" fill="#fecc99" stroke-width="1.0253"/></g><g stroke="none"><g><g><path d="M242.061,137.7826c6.90971,0 13.17105,2.76746 17.70493,7.23806c4.53388,4.47127 7.34031,10.64562 7.34031,17.45931c0,6.8137 -2.80642,12.98804 -7.34031,17.45925c-4.53388,4.4706 -10.79522,7.23812 -17.70493,7.23812c-6.90965,0 -13.17099,-2.76753 -17.70487,-7.23812c-4.53388,-4.47121 -7.34031,-10.64556 -7.34031,-17.45925c0,-6.8137 2.80642,-12.98804 7.34031,-17.45931c4.53388,-4.4706 10.79522,-7.23806 17.70487,-7.23806z" fill="url(#color-30)" stroke-width="1.12676" stroke-linecap="butt"/><path d="M245.72127,147.13105c3.45516,-0.20993 7.1221,0.60323 9.87895,2.46974c3.12422,2.16287 5.57605,5.46368 6.79178,8.9528c1.08854,3.10199 0.16609,6.53554 0,9.87895c-0.04137,0.83601 -0.57298,-0.3507 -0.30872,0c1.05581,1.40219 2.6562,2.54259 3.55025,4.16768c0.59274,1.29723 1.01506,2.88033 0.77179,4.32204c-0.40442,2.39318 -0.77797,5.21855 -2.6241,6.79178c-3.56939,3.0279 -8.22855,5.20929 -12.96612,6.17434c-5.68595,1.1935 -11.68988,1.02185 -17.59688,0.15436c-4.3844,-0.6446 -8.79844,-2.11348 -12.50305,-4.63076c-2.05173,-1.44727 -3.20263,-4.09668 -3.85896,-6.63742c-0.51679,-2.00604 0.01914,-4.13311 0.77179,-6.17434c0.57113,-1.54297 2.01716,-2.57655 3.08717,-3.85896c0.26735,-0.32045 0.53408,-0.21116 0.61743,-0.92615c0.33341,-2.85934 -0.49148,-5.87736 0.30872,-8.64408c0.88849,-3.06186 2.32402,-6.49417 4.93947,-8.64408c2.56174,-2.0363 6.09593,-3.02481 9.57023,-3.08717c2.02704,-0.03396 3.59223,2.06161 5.24819,3.08717c0.4143,0.25624 -0.64213,0.28711 -0.30872,0c1.32934,-1.14658 2.71918,-3.27919 4.63076,-3.39589z" fill="url(#color-31)" stroke-width="1" stroke-linecap="round"/></g><path d="M242.17343,172.33281c2.95121,0.0042 6.08827,-0.45511 8.63945,0.88336c2.17874,1.14837 4.34056,3.35823 4.4522,5.7243c0.05724,2.41479 -1.94202,4.76882 -4.03666,5.9073c-2.69115,1.46289 -6.10093,1.05865 -9.21397,1.01833c-2.95967,0.04032 -6.19923,0.347 -8.89599,-1.01833c-2.13632,-1.08057 -4.38508,-3.18226 -4.53135,-5.58932c-0.00426,-2.35539 2.06921,-4.75678 4.16953,-5.86563c2.7929,-1.47487 6.26282,-1.06359 9.4168,-1.06001z" fill="url(#color-32)" stroke-width="1.14458" stroke-linecap="round"/><path d="M224.11107,177.07662c1.06446,0 2.02951,0.39763 2.72782,1.04038c0.69894,0.64275 1.13114,1.53062 1.13114,2.50987c0,0.97925 -0.4322,1.86712 -1.13114,2.50987c-0.69832,0.64275 -1.66337,1.04038 -2.72782,1.04038c-1.06446,0 -2.02951,-0.39763 -2.72782,-1.04038c-0.69894,-0.64275 -1.13114,-1.53062 -1.13114,-2.50987c0,-0.97925 0.4322,-1.86712 1.13114,-2.50987c0.69832,-0.64275 1.66337,-1.04038 2.72782,-1.04038z" fill="url(#color-33)" stroke-width="1" stroke-linecap="round"/><path d="M259.7679,176.30482c1.06446,0 2.02951,0.39763 2.72782,1.04038c0.69894,0.64275 1.13114,1.53062 1.13114,2.50987c0,0.97925 -0.4322,1.86712 -1.13114,2.50987c-0.69832,0.64275 -1.66337,1.04038 -2.72782,1.04038c-1.06446,0 -2.02951,-0.39763 -2.72782,-1.04038c-0.69894,-0.64275 -1.13114,-1.53062 -1.13114,-2.50987c0,-0.97925 0.4322,-1.86712 1.13114,-2.50987c0.69832,-0.64275 1.66337,-1.04038 2.72782,-1.04038z" fill="url(#color-34)" stroke-width="1" stroke-linecap="butt"/></g><path d="M238.46642,133.08442c0.42294,-0.00679 0.36861,1.93627 0.92615,2.77845c0.55013,0.77611 1.59175,1.08421 2.31538,1.69794c0.58286,0.49333 1.47876,0.78661 1.69794,1.54359c0.19758,0.45875 -0.30131,0.95949 -0.70141,1.34662c-0.4569,0.43838 -1.03112,0.8144 -1.69115,0.8144c-0.66004,0 -1.38305,-0.27044 -1.69115,-0.8144c-0.82489,-1.55532 -1.46888,-3.08161 -1.62756,-4.74251c-0.08953,-0.98851 0.42603,-2.6951 0.77179,-2.6241z" fill="url(#color-35)" stroke-width="1" stroke-linecap="round"/></g><g><g stroke="none" stroke-linecap="butt"><path d="M229.14316,159.78846c1.27747,0 2.43516,0.86503 3.27364,2.26228c0.83848,1.39664 1.35712,3.32612 1.35712,5.45565c0,2.12953 -0.51864,4.05901 -1.35712,5.45565c-0.83848,1.39725 -1.99617,2.26228 -3.27364,2.26228c-1.27747,0 -2.43516,-0.86503 -3.27364,-2.26228c-0.83848,-1.39664 -1.35712,-3.32612 -1.35712,-5.45565c0,-2.12953 0.51864,-4.05901 1.35712,-5.45565c0.83848,-1.39725 1.99617,-2.26228 3.27364,-2.26228z" fill="#ffffff" stroke-width="1"/><path d="M230.23911,161.90465c0.91559,0 1.74543,0.48407 2.34625,1.26691c0.60076,0.78223 0.97246,1.86255 0.97246,3.05513c0,1.19251 -0.3717,2.2729 -0.97246,3.05507c-0.60083,0.78291 -1.43066,1.26698 -2.34625,1.26698c-0.91559,0 -1.74543,-0.48407 -2.34625,-1.26698c-0.60076,-0.78217 -0.97246,-1.86255 -0.97246,-3.05507c0,-1.19257 0.3717,-2.2729 0.97246,-3.05513c0.60083,-0.78284 1.43066,-1.26691 2.34625,-1.26691z" fill="#9a6732" stroke-width="1.14582"/></g><g stroke="none" stroke-linecap="butt"><path d="M254.30361,160.09717c1.27747,0 2.43516,0.86503 3.27364,2.26228c0.83848,1.39664 1.35712,3.32612 1.35712,5.45565c0,2.12953 -0.51864,4.05901 -1.35712,5.45565c-0.83848,1.39725 -1.99617,2.26228 -3.27364,2.26228c-1.27747,0 -2.43516,-0.86503 -3.27364,-2.26228c-0.83848,-1.39664 -1.35712,-3.32612 -1.35712,-5.45565c0,-2.12953 0.51864,-4.05901 1.35712,-5.45565c0.83848,-1.39725 1.99617,-2.26228 3.27364,-2.26228z" fill="#ffffff" stroke-width="1"/><path d="M253.26941,162.21337c0.91559,0 1.74543,0.48407 2.34625,1.26691c0.60076,0.78223 0.97246,1.86255 0.97246,3.05513c0,1.19251 -0.3717,2.2729 -0.97246,3.05507c-0.60083,0.78291 -1.43066,1.26698 -2.34625,1.26698c-0.91559,0 -1.74543,-0.48407 -2.34625,-1.26698c-0.60076,-0.78217 -0.97246,-1.86255 -0.97246,-3.05507c0,-1.19257 0.3717,-2.2729 0.97246,-3.05513c0.60083,-0.78284 1.43066,-1.26691 2.34625,-1.26691z" fill="#9a6732" stroke-width="1.14582"/></g><g><path d="M241.9858,171.67407c1.19227,0 2.27278,0.27661 3.05507,0.72363c0.78291,0.44702 1.26698,1.06446 1.26698,1.7461c0,0.68165 -0.48407,1.29908 -1.26698,1.7461c-0.78229,0.44702 -1.8628,0.72363 -3.05507,0.72363c-1.19227,0 -2.27278,-0.27661 -3.05507,-0.72363c-0.78291,-0.44702 -1.26698,-1.06446 -1.26698,-1.7461c0,-0.68165 0.48407,-1.29908 1.26698,-1.7461c0.78229,-0.44702 1.8628,-0.72363 3.05507,-0.72363z" fill="#343432" stroke="none" stroke-width="1" stroke-linecap="butt"/><path d="M241.83144,178.58019v-4.44213" fill="none" stroke="#343432" stroke-width="2.57151" stroke-linecap="round"/><path d="M241.80563,180.15848c1.50932,-0.00482 3.03568,0.15109 4.51968,0.44332c0.37114,0.07292 0.31792,0.21752 0.22759,0.45758c-0.44103,0.96647 -0.79248,2.08322 -1.63058,2.72727c-0.82668,0.63448 -1.96338,0.89627 -3.0045,0.87768c-1.04062,-0.02099 -2.1746,-0.36953 -2.99048,-1.03723c-0.78303,-0.64016 -1.13015,-1.68393 -1.54667,-2.58643c-0.08409,-0.25296 -0.10811,-0.37342 0.23617,-0.43819c1.37824,-0.26037 2.79358,-0.44264 4.1888,-0.444z" fill="#343432" stroke="none" stroke-width="1" stroke-linecap="round"/></g></g></g></g></g></svg>